<?xml version="1.0" encoding="UTF-8"?>
<svg version="1.1" xmlns="http://www.w3.org/2000/svg" width="32" height="32">
<path d="M0 0 C2 2 2 2 2.23046875 5.7734375 C2.22647418 7.30735334 2.21170338 8.84126992 2.1875 10.375 C2.18685547 11.14328125 2.18621094 11.9115625 2.18554688 12.703125 C2.15721776 16.34184307 1.90743274 19.46994745 1 23 C0.96213099 24.66623639 0.95372155 26.33397597 1 28 C-8.41002278 32.59225513 -8.41002278 32.59225513 -13 32 C-13.33 31.01 -13.66 30.02 -14 29 C-16.01508358 28.26676204 -16.01508358 28.26676204 -18 28 C-18.08097324 25.72975032 -18.13917704 23.45867925 -18.1875 21.1875 C-18.22230469 19.92292969 -18.25710937 18.65835937 -18.29296875 17.35546875 C-18 14 -18 14 -16.546875 12.26953125 C-16.03640625 11.85058594 -15.5259375 11.43164062 -15 11 C-14.5359375 9.2675 -14.5359375 9.2675 -14.0625 7.5 C-12.93018706 3.77002797 -12.33678756 2.82006594 -9 1 C-5.75778445 -0.08073852 -3.39597063 -0.21676408 0 0 Z " fill="#B2B2B2" transform="translate(24,0)"/>
<path d="M0 0 C0.99 0.66 1.98 1.32 3 2 C3.24975979 4.87223762 3.3261478 7.50993904 3.25 10.375 C3.24484375 11.14328125 3.2396875 11.9115625 3.234375 12.703125 C3.18413676 16.33283755 2.90105337 19.4790847 2 23 C1.96213099 24.66623639 1.95372155 26.33397597 2 28 C0.5437455 28.67119549 -0.91507867 29.33681807 -2.375 30 C-3.59316406 30.556875 -3.59316406 30.556875 -4.8359375 31.125 C-7 32 -7 32 -9 32 C-9.38730126 28.61111395 -9.17469717 27.26204576 -7.25 24.375 C-5 22 -5 22 -2.90625 20.95703125 C0.26764495 17.69858582 -0.32040461 13.6871862 -0.25 9.3125 C-0.20552734 7.97348633 -0.20552734 7.97348633 -0.16015625 6.60742188 C-0.08948573 4.40485723 -0.03678061 2.20334869 0 0 Z " fill="#646363" transform="translate(23,0)"/>
<path d="M0 0 C0.11613204 3.10385211 0.18722029 6.20714662 0.25 9.3125 C0.28351562 10.19357422 0.31703125 11.07464844 0.3515625 11.98242188 C0.36445313 12.82998047 0.37734375 13.67753906 0.390625 14.55078125 C0.41157227 15.33106689 0.43251953 16.11135254 0.45410156 16.9152832 C0 19 0 19 -4 22 C-3.01 17.38 -2.02 12.76 -1 8 C-2.65 8.33 -4.3 8.66 -6 9 C-6 8.34 -6 7.68 -6 7 C-6.78375 7.495 -7.5675 7.99 -8.375 8.5 C-11 10 -11 10 -13 10 C-13.3125 7.75 -13.3125 7.75 -13 5 C-8.88233723 0.99362542 -5.66075917 -0.15299349 0 0 Z " fill="#7F7F7F" transform="translate(23,0)"/>
<path d="M0 0 C0 0.99 0 1.98 0 3 C-2.31 2.67 -4.62 2.34 -7 2 C-7 2.99 -7 3.98 -7 5 C-5.35 4.67 -3.7 4.34 -2 4 C-1.34 5.32 -0.68 6.64 0 8 C-2.31 8.33 -4.62 8.66 -7 9 C-6.67 9.66 -6.34 10.32 -6 11 C-3.47266765 11.65555119 -3.47266765 11.65555119 -1 12 C-1 13.65 -1 15.3 -1 17 C-2.32 16.67 -3.64 16.34 -5 16 C-5 15.34 -5 14.68 -5 14 C-6.32 13.67 -7.64 13.34 -9 13 C-9 8.38 -9 3.76 -9 -1 C-3 -2 -3 -2 0 0 Z " fill="#939393" transform="translate(15,15)"/>
<path d="M0 0 C0 1.98 0 3.96 0 6 C-1.0725 5.979375 -2.145 5.95875 -3.25 5.9375 C-6.14790424 5.9857984 -8.28612141 6.13155885 -11 7 C-9.90537324 3.8255824 -9.01822665 3.01085843 -6.0625 1.25 C-3 0 -3 0 0 0 Z " fill="#B8B8B8" transform="translate(21,0)"/>
<path d="M0 0 C2.33294775 -0.04241723 4.66702567 -0.04092937 7 0 C8 1 8 1 8.0625 3.5625 C8.041875 4.366875 8.02125 5.17125 8 6 C6.68 5.67 5.36 5.34 4 5 C4 4.34 4 3.68 4 3 C2.68 2.67 1.36 2.34 0 2 C0 1.34 0 0.68 0 0 Z " fill="#8B8A8A" transform="translate(6,26)"/>
<path d="M0 0 C0.33 0 0.66 0 1 0 C1.390625 5.95703125 1.390625 5.95703125 1 8 C-0.32 8.99 -1.64 9.98 -3 11 C-2.01 7.37 -1.02 3.74 0 0 Z " fill="#7C7B7B" transform="translate(22,11)"/>
<path d="M0 0 C0.66 0 1.32 0 2 0 C2 3.63 2 7.26 2 11 C-1 7 -1 7 -0.6875 3.25 C-0.3471875 1.64125 -0.3471875 1.64125 0 0 Z " fill="#939292" transform="translate(21,0)"/>
<path d="M0 0 C0 0.99 0 1.98 0 3 C-2.31 3 -4.62 3 -7 3 C-4.49955934 -0.00052879 -4.2621484 0 0 0 Z " fill="#CFCFCF" transform="translate(20,2)"/>
</svg>
